<svg viewBox="0 0 64 64" xmlns="http://www.w3.org/2000/svg" role="img" aria-label="Emerald arc reactor">
  <defs>
    <radialGradient id="core" cx="50%" cy="50%" r="60%">
      <stop offset="0%" stop-color="#d2fff0" stop-opacity="1"/>
      <stop offset="60%" stop-color="#7fffd4" stop-opacity="0.9"/>
      <stop offset="100%" stop-color="#21a67c" stop-opacity="0.85"/>
    </radialGradient>
    <linearGradient id="ring" x1="0%" y1="0%" x2="100%" y2="100%">
      <stop offset="0%" stop-color="#8df7d7"/>
      <stop offset="100%" stop-color="#1dd68f"/>
    </linearGradient>
  </defs>

  <!-- Transparent background for a clean, floating mark -->
  <rect width="64" height="64" fill="none"/>
  <circle cx="32" cy="32" r="28" fill="none" stroke="#0a2f26" stroke-width="1.6" opacity="0.55"/>
  <circle cx="32" cy="32" r="22" fill="url(#core)" stroke="#0f5c45" stroke-width="1.2"/>

  <g fill="none" stroke="url(#ring)" stroke-width="2.8" stroke-linecap="round">
    <path d="M32 11 L42 18"/>
    <path d="M32 11 L22 18"/>
    <path d="M11 32 L18 22"/>
    <path d="M11 32 L18 42"/>
    <path d="M32 53 L22 46"/>
    <path d="M32 53 L42 46"/>
    <path d="M53 32 L46 22"/>
    <path d="M53 32 L46 42"/>
  </g>

  <circle cx="32" cy="32" r="14" fill="#07261c" stroke="#8df7d7" stroke-width="1.4" opacity="0.9"/>
  <circle cx="32" cy="32" r="10" fill="#9ffff0" opacity="0.9"/>
  <circle cx="32" cy="32" r="6" fill="#e7fff8" opacity="0.95"/>

  <g stroke="#a8ffe7" stroke-width="1" opacity="0.7">
    <line x1="32" y1="14" x2="32" y2="18"/>
    <line x1="32" y1="46" x2="32" y2="50"/>
    <line x1="14" y1="32" x2="18" y2="32"/>
    <line x1="46" y1="32" x2="50" y2="32"/>
  </g>

  <circle cx="32" cy="32" r="28" fill="none" stroke="#0a2f26" stroke-width="1.2" opacity="0.35"/>
</svg>